<svg width="18" height="21" viewBox="0 0 18 21" fill="none" xmlns="http://www.w3.org/2000/svg">
<path fill-rule="evenodd" clip-rule="evenodd" d="M4.5 8.9855V5.9855C4.49842 4.92278 4.87299 3.8938 5.55738 3.08079C6.24177 2.26779 7.19181 1.72323 8.23923 1.54357C9.28666 1.36391 10.3639 1.56074 11.2801 2.0992C12.1963 2.63766 12.8923 3.483 13.245 4.4855H14.811C14.4424 3.07477 13.573 1.84641 12.365 1.0298C11.157 0.213188 9.69314 -0.135854 8.24667 0.047848C6.80019 0.23155 5.47003 0.935438 4.50454 2.02808C3.53905 3.12072 3.00425 4.52742 3 5.9855V8.9855H1.5L0 10.4855V19.4855L1.5 20.9855H16.5L18 19.4855V10.4855L16.5 8.9855H4.5ZM13.5 10.4855H16.5V19.4855H1.5V10.4855H13.5Z" fill="#0A3871"/>
</svg>
